# xmcd
#
# Track frame offsets:
#	150
#	10332
#	21485
#	32655
#	45325
#	64080
#	75377
#	87450
#	107027
#	122397
#	138212
#	154910
#	166455
#	178480
#
# Disc length: 2605 seconds
#
# Revision: 0
# Processed by: cddbd v1.4PL0 Copyright (c) Steve Scherf et al.
# Submitted via: EasyCDDAExtractor 4.6.9.1
#
DISCID=b00a2b0e
DTITLE=Charlie Sizemore - The Story Is... The Songs of Tom T. Hall
DYEAR=2002
DGENRE=Bluegrass
TTITLE0=Mama's Got The Catfish Blues
TTITLE1=I'll Never Do Better Than You
TTITLE2=I Washed My Face In The Morning Dew
TTITLE3=Pamela Brown
TTITLE4=I Flew Over Our House Last Night
TTITLE5=Waiting On The Other Shoe To Fall
TTITLE6=Kentucky In The Morning
TTITLE7=Old Dogs, Children And Watermelon Wine
TTITLE8=Ballad Of Forty Dollars
TTITLE9=Margie's At The Lincoln Park Inn
TTITLE10=Turn It On, Turn It On, Turn It On
TTITLE11=Another Town
TTITLE12=The Year That Clayton Delaney Died
TTITLE13=Me And Jesus
EXTD=
EXTT0=
EXTT1=
EXTT2=
EXTT3=
EXTT4=
EXTT5=
EXTT6=
EXTT7=
EXTT8=
EXTT9=
EXTT10=
EXTT11=
EXTT12=
EXTT13=
PLAYORDER=
